<svg width="99" height="51" viewBox="0 0 99 51" fill="none" xmlns="http://www.w3.org/2000/svg">
<g filter="url(#filter0_d_21_351)">
<path d="M14.472 7.64V34.088H27.288L26.328 41H5.59198V7.64H14.472Z" fill="#141414"/>
<path d="M40.5941 14.552C44.5941 14.552 47.7301 15.752 50.0021 18.152C52.2741 20.552 53.4101 23.912 53.4101 28.232C53.4101 30.984 52.8981 33.384 51.8741 35.432C50.8501 37.48 49.3621 39.064 47.4101 40.184C45.4901 41.304 43.2181 41.864 40.5941 41.864C36.5941 41.864 33.4581 40.664 31.1861 38.264C28.9141 35.864 27.7781 32.504 27.7781 28.184C27.7781 25.432 28.2901 23.032 29.3141 20.984C30.3381 18.936 31.8101 17.352 33.7301 16.232C35.6821 15.112 37.9701 14.552 40.5941 14.552ZM40.5941 20.744C39.2181 20.744 38.1941 21.352 37.5221 22.568C36.8821 23.752 36.5621 25.624 36.5621 28.184C36.5621 30.84 36.8821 32.76 37.5221 33.944C38.1941 35.096 39.2181 35.672 40.5941 35.672C41.9701 35.672 42.9781 35.08 43.6181 33.896C44.2901 32.68 44.6261 30.792 44.6261 28.232C44.6261 25.608 44.2901 23.704 43.6181 22.52C42.9781 21.336 41.9701 20.744 40.5941 20.744Z" fill="#141414"/>
<path d="M65.6494 4.472V41H57.1054V5.336L65.6494 4.472ZM81.7294 15.416L74.4814 26.648L82.2574 41H72.7534L65.8414 27.032L73.1854 15.416H81.7294Z" fill="#141414"/>
<path d="M92.7431 15.416V41H84.1991V15.416H92.7431ZM88.4711 1.64C89.9111 1.64 91.0791 2.088 91.9751 2.984C92.9031 3.88 93.3671 5 93.3671 6.344C93.3671 7.688 92.9031 8.808 91.9751 9.704C91.0791 10.6 89.9111 11.048 88.4711 11.048C87.0311 11.048 85.8471 10.6 84.9191 9.704C84.0231 8.808 83.5751 7.688 83.5751 6.344C83.5751 5 84.0231 3.88 84.9191 2.984C85.8471 2.088 87.0311 1.64 88.4711 1.64Z" fill="#141414"/>
<path d="M14.972 7.64V7.14H14.472H5.59198H5.09198V7.64V41V41.5H5.59198H26.328H26.7633L26.8232 41.0688L27.7832 34.1568L27.8622 33.588H27.288H14.972V7.64ZM33.4813 15.7983L33.4782 15.8001C31.4716 16.9706 29.933 18.6282 28.8669 20.7604C27.8019 22.8905 27.2781 25.3699 27.2781 28.184C27.2781 32.5913 28.4387 36.0891 30.823 38.6077C33.2089 41.128 36.4879 42.364 40.5941 42.364C43.2896 42.364 45.6512 41.7884 47.66 40.6171C49.6984 39.4472 51.2543 37.7896 52.3213 35.6556C53.3864 33.5255 53.9101 31.0461 53.9101 28.232C53.9101 23.8247 52.7495 20.3269 50.3652 17.8083C47.9793 15.288 44.7004 14.052 40.5941 14.052C37.8974 14.052 35.5208 14.6281 33.4813 15.7983ZM43.1805 33.6542L43.1783 33.6582C42.895 34.1823 42.5429 34.5537 42.1289 34.7969C41.7143 35.0403 41.209 35.172 40.5941 35.172C39.3919 35.172 38.537 34.6869 37.9581 33.6991C37.3826 32.629 37.0621 30.8172 37.0621 28.184C37.0621 25.6464 37.3827 23.8789 37.9608 22.8078C38.2609 22.2656 38.6262 21.8812 39.0494 21.6299C39.4728 21.3785 39.9818 21.244 40.5941 21.244C41.209 21.244 41.7143 21.3757 42.1289 21.6191C42.5429 21.8623 42.895 22.2337 43.1783 22.7578L43.1782 22.7578L43.1833 22.7668C43.7887 23.8335 44.1261 25.628 44.1261 28.232C44.1261 30.7677 43.7899 32.5513 43.1805 33.6542ZM66.1494 4.472V3.91889L65.5991 3.97454L57.055 4.83854L56.6054 4.88401V5.336V41V41.5H57.1054H65.6494H66.1494V41V28.7818L72.3052 41.2218L72.4429 41.5H72.7534H82.2574H83.0969L82.697 40.7618L75.0621 26.6702L82.1495 15.6871L82.6471 14.916H81.7294H73.1854H72.9099L72.7627 15.1488L66.1494 25.6092V4.472ZM93.2431 15.416V14.916H92.7431H84.1991H83.6991V15.416V41V41.5H84.1991H92.7431H93.2431V41V15.416ZM84.5656 10.0576L84.5655 10.0576L84.5718 10.0637C85.6042 11.0605 86.9179 11.548 88.4711 11.548C90.0224 11.548 91.3231 11.0614 92.3255 10.0607C93.3535 9.06659 93.8671 7.81578 93.8671 6.344C93.8671 4.87222 93.3535 3.62141 92.3256 2.62734C91.3231 1.62661 90.0224 1.14 88.4711 1.14C86.9179 1.14 85.6042 1.62752 84.5718 2.6243L84.5718 2.62424L84.5656 2.63045C83.5697 3.62634 83.0751 4.87632 83.0751 6.344C83.0751 7.81168 83.5697 9.06166 84.5656 10.0576Z" stroke="black"/>
</g>
<defs>
<filter id="filter0_d_21_351" x="0.59198" y="0.639999" width="97.7751" height="50.224" filterUnits="userSpaceOnUse" color-interpolation-filters="sRGB">
<feFlood flood-opacity="0" result="BackgroundImageFix"/>
<feColorMatrix in="SourceAlpha" type="matrix" values="0 0 0 0 0 0 0 0 0 0 0 0 0 0 0 0 0 0 127 0" result="hardAlpha"/>
<feOffset dy="4"/>
<feGaussianBlur stdDeviation="2"/>
<feComposite in2="hardAlpha" operator="out"/>
<feColorMatrix type="matrix" values="0 0 0 0 0 0 0 0 0 0 0 0 0 0 0 0 0 0 0.25 0"/>
<feBlend mode="normal" in2="BackgroundImageFix" result="effect1_dropShadow_21_351"/>
<feBlend mode="normal" in="SourceGraphic" in2="effect1_dropShadow_21_351" result="shape"/>
</filter>
</defs>
</svg>
